<?xml version="1.0" encoding="utf-8" standalone="no"?>
<!DOCTYPE svg PUBLIC "-//W3C//DTD SVG 1.1//EN"
  "http://www.w3.org/Graphics/SVG/1.1/DTD/svg11.dtd">
<!-- Created with matplotlib (https://matplotlib.org/) -->
<svg height="288pt" version="1.1" viewBox="0 0 432 288" width="432pt" xmlns="http://www.w3.org/2000/svg" xmlns:xlink="http://www.w3.org/1999/xlink">
 <defs>
  <style type="text/css">
*{stroke-linecap:butt;stroke-linejoin:round;}
  </style>
 </defs>
 <g id="figure_1">
  <g id="patch_1">
   <path d="M 0 288 
L 432 288 
L 432 0 
L 0 0 
z
" style="fill:#ffffff;"/>
  </g>
  <g id="axes_1">
   <g id="patch_2">
    <path d="M 54 252 
L 388.8 252 
L 388.8 34.56 
L 54 34.56 
z
" style="fill:#ffffff;"/>
   </g>
   <g id="matplotlib.axis_1">
    <g id="xtick_1">
     <g id="line2d_1">
      <defs>
       <path d="M 0 0 
L 0 3.5 
" id="m05a0e34483" style="stroke:#000000;stroke-width:0.8;"/>
      </defs>
      <g>
       <use style="stroke:#000000;stroke-width:0.8;" x="69.218182" xlink:href="#m05a0e34483" y="252"/>
      </g>
     </g>
     <g id="text_1">
      <!-- 0 -->
      <defs>
       <path d="M 31.78125 66.40625 
Q 24.171875 66.40625 20.328125 58.90625 
Q 16.5 51.421875 16.5 36.375 
Q 16.5 21.390625 20.328125 13.890625 
Q 24.171875 6.390625 31.78125 6.390625 
Q 39.453125 6.390625 43.28125 13.890625 
Q 47.125 21.390625 47.125 36.375 
Q 47.125 51.421875 43.28125 58.90625 
Q 39.453125 66.40625 31.78125 66.40625 
z
M 31.78125 74.21875 
Q 44.046875 74.21875 50.515625 64.515625 
Q 56.984375 54.828125 56.984375 36.375 
Q 56.984375 17.96875 50.515625 8.265625 
Q 44.046875 -1.421875 31.78125 -1.421875 
Q 19.53125 -1.421875 13.0625 8.265625 
Q 6.59375 17.96875 6.59375 36.375 
Q 6.59375 54.828125 13.0625 64.515625 
Q 19.53125 74.21875 31.78125 74.21875 
z
" id="DejaVuSans-48"/>
      </defs>
      <g transform="translate(66.036932 266.598437)scale(0.1 -0.1)">
       <use xlink:href="#DejaVuSans-48"/>
      </g>
     </g>
    </g>
    <g id="xtick_2">
     <g id="line2d_2">
      <g>
       <use style="stroke:#000000;stroke-width:0.8;" x="107.263636" xlink:href="#m05a0e34483" y="252"/>
      </g>
     </g>
     <g id="text_2">
      <!-- 1 -->
      <defs>
       <path d="M 12.40625 8.296875 
L 28.515625 8.296875 
L 28.515625 63.921875 
L 10.984375 60.40625 
L 10.984375 69.390625 
L 28.421875 72.90625 
L 38.28125 72.90625 
L 38.28125 8.296875 
L 54.390625 8.296875 
L 54.390625 0 
L 12.40625 0 
z
" id="DejaVuSans-49"/>
      </defs>
      <g transform="translate(104.082386 266.598437)scale(0.1 -0.1)">
       <use xlink:href="#DejaVuSans-49"/>
      </g>
     </g>
    </g>
    <g id="xtick_3">
     <g id="line2d_3">
      <g>
       <use style="stroke:#000000;stroke-width:0.8;" x="145.309091" xlink:href="#m05a0e34483" y="252"/>
      </g>
     </g>
     <g id="text_3">
      <!-- 2 -->
      <defs>
       <path d="M 19.1875 8.296875 
L 53.609375 8.296875 
L 53.609375 0 
L 7.328125 0 
L 7.328125 8.296875 
Q 12.9375 14.109375 22.625 23.890625 
Q 32.328125 33.6875 34.8125 36.53125 
Q 39.546875 41.84375 41.421875 45.53125 
Q 43.3125 49.21875 43.3125 52.78125 
Q 43.3125 58.59375 39.234375 62.25 
Q 35.15625 65.921875 28.609375 65.921875 
Q 23.96875 65.921875 18.8125 64.3125 
Q 13.671875 62.703125 7.8125 59.421875 
L 7.8125 69.390625 
Q 13.765625 71.78125 18.9375 73 
Q 24.125 74.21875 28.421875 74.21875 
Q 39.75 74.21875 46.484375 68.546875 
Q 53.21875 62.890625 53.21875 53.421875 
Q 53.21875 48.921875 51.53125 44.890625 
Q 49.859375 40.875 45.40625 35.40625 
Q 44.1875 33.984375 37.640625 27.21875 
Q 31.109375 20.453125 19.1875 8.296875 
z
" id="DejaVuSans-50"/>
      </defs>
      <g transform="translate(142.127841 266.598437)scale(0.1 -0.1)">
       <use xlink:href="#DejaVuSans-50"/>
      </g>
     </g>
    </g>
    <g id="xtick_4">
     <g id="line2d_4">
      <g>
       <use style="stroke:#000000;stroke-width:0.8;" x="183.354545" xlink:href="#m05a0e34483" y="252"/>
      </g>
     </g>
     <g id="text_4">
      <!-- 3 -->
      <defs>
       <path d="M 40.578125 39.3125 
Q 47.65625 37.796875 51.625 33 
Q 55.609375 28.21875 55.609375 21.1875 
Q 55.609375 10.40625 48.1875 4.484375 
Q 40.765625 -1.421875 27.09375 -1.421875 
Q 22.515625 -1.421875 17.65625 -0.515625 
Q 12.796875 0.390625 7.625 2.203125 
L 7.625 11.71875 
Q 11.71875 9.328125 16.59375 8.109375 
Q 21.484375 6.890625 26.8125 6.890625 
Q 36.078125 6.890625 40.9375 10.546875 
Q 45.796875 14.203125 45.796875 21.1875 
Q 45.796875 27.640625 41.28125 31.265625 
Q 36.765625 34.90625 28.71875 34.90625 
L 20.21875 34.90625 
L 20.21875 43.015625 
L 29.109375 43.015625 
Q 36.375 43.015625 40.234375 45.921875 
Q 44.09375 48.828125 44.09375 54.296875 
Q 44.09375 59.90625 40.109375 62.90625 
Q 36.140625 65.921875 28.71875 65.921875 
Q 24.65625 65.921875 20.015625 65.03125 
Q 15.375 64.15625 9.8125 62.3125 
L 9.8125 71.09375 
Q 15.4375 72.65625 20.34375 73.4375 
Q 25.25 74.21875 29.59375 74.21875 
Q 40.828125 74.21875 47.359375 69.109375 
Q 53.90625 64.015625 53.90625 55.328125 
Q 53.90625 49.265625 50.4375 45.09375 
Q 46.96875 40.921875 40.578125 39.3125 
z
" id="DejaVuSans-51"/>
      </defs>
      <g transform="translate(180.173295 266.598437)scale(0.1 -0.1)">
       <use xlink:href="#DejaVuSans-51"/>
      </g>
     </g>
    </g>
    <g id="xtick_5">
     <g id="line2d_5">
      <g>
       <use style="stroke:#000000;stroke-width:0.8;" x="221.4" xlink:href="#m05a0e34483" y="252"/>
      </g>
     </g>
     <g id="text_5">
      <!-- 4 -->
      <defs>
       <path d="M 37.796875 64.3125 
L 12.890625 25.390625 
L 37.796875 25.390625 
z
M 35.203125 72.90625 
L 47.609375 72.90625 
L 47.609375 25.390625 
L 58.015625 25.390625 
L 58.015625 17.1875 
L 47.609375 17.1875 
L 47.609375 0 
L 37.796875 0 
L 37.796875 17.1875 
L 4.890625 17.1875 
L 4.890625 26.703125 
z
" id="DejaVuSans-52"/>
      </defs>
      <g transform="translate(218.21875 266.598437)scale(0.1 -0.1)">
       <use xlink:href="#DejaVuSans-52"/>
      </g>
     </g>
    </g>
    <g id="xtick_6">
     <g id="line2d_6">
      <g>
       <use style="stroke:#000000;stroke-width:0.8;" x="259.445455" xlink:href="#m05a0e34483" y="252"/>
      </g>
     </g>
     <g id="text_6">
      <!-- 5 -->
      <defs>
       <path d="M 10.796875 72.90625 
L 49.515625 72.90625 
L 49.515625 64.59375 
L 19.828125 64.59375 
L 19.828125 46.734375 
Q 21.96875 47.46875 24.109375 47.828125 
Q 26.265625 48.1875 28.421875 48.1875 
Q 40.625 48.1875 47.75 41.5 
Q 54.890625 34.8125 54.890625 23.390625 
Q 54.890625 11.625 47.5625 5.09375 
Q 40.234375 -1.421875 26.90625 -1.421875 
Q 22.3125 -1.421875 17.546875 -0.640625 
Q 12.796875 0.140625 7.71875 1.703125 
L 7.71875 11.625 
Q 12.109375 9.234375 16.796875 8.0625 
Q 21.484375 6.890625 26.703125 6.890625 
Q 35.15625 6.890625 40.078125 11.328125 
Q 45.015625 15.765625 45.015625 23.390625 
Q 45.015625 31 40.078125 35.4375 
Q 35.15625 39.890625 26.703125 39.890625 
Q 22.75 39.890625 18.8125 39.015625 
Q 14.890625 38.140625 10.796875 36.28125 
z
" id="DejaVuSans-53"/>
      </defs>
      <g transform="translate(256.264205 266.598437)scale(0.1 -0.1)">
       <use xlink:href="#DejaVuSans-53"/>
      </g>
     </g>
    </g>
    <g id="xtick_7">
     <g id="line2d_7">
      <g>
       <use style="stroke:#000000;stroke-width:0.8;" x="297.490909" xlink:href="#m05a0e34483" y="252"/>
      </g>
     </g>
     <g id="text_7">
      <!-- 6 -->
      <defs>
       <path d="M 33.015625 40.375 
Q 26.375 40.375 22.484375 35.828125 
Q 18.609375 31.296875 18.609375 23.390625 
Q 18.609375 15.53125 22.484375 10.953125 
Q 26.375 6.390625 33.015625 6.390625 
Q 39.65625 6.390625 43.53125 10.953125 
Q 47.40625 15.53125 47.40625 23.390625 
Q 47.40625 31.296875 43.53125 35.828125 
Q 39.65625 40.375 33.015625 40.375 
z
M 52.59375 71.296875 
L 52.59375 62.3125 
Q 48.875 64.0625 45.09375 64.984375 
Q 41.3125 65.921875 37.59375 65.921875 
Q 27.828125 65.921875 22.671875 59.328125 
Q 17.53125 52.734375 16.796875 39.40625 
Q 19.671875 43.65625 24.015625 45.921875 
Q 28.375 48.1875 33.59375 48.1875 
Q 44.578125 48.1875 50.953125 41.515625 
Q 57.328125 34.859375 57.328125 23.390625 
Q 57.328125 12.15625 50.6875 5.359375 
Q 44.046875 -1.421875 33.015625 -1.421875 
Q 20.359375 -1.421875 13.671875 8.265625 
Q 6.984375 17.96875 6.984375 36.375 
Q 6.984375 53.65625 15.1875 63.9375 
Q 23.390625 74.21875 37.203125 74.21875 
Q 40.921875 74.21875 44.703125 73.484375 
Q 48.484375 72.75 52.59375 71.296875 
z
" id="DejaVuSans-54"/>
      </defs>
      <g transform="translate(294.309659 266.598437)scale(0.1 -0.1)">
       <use xlink:href="#DejaVuSans-54"/>
      </g>
     </g>
    </g>
    <g id="xtick_8">
     <g id="line2d_8">
      <g>
       <use style="stroke:#000000;stroke-width:0.8;" x="335.536364" xlink:href="#m05a0e34483" y="252"/>
      </g>
     </g>
     <g id="text_8">
      <!-- 7 -->
      <defs>
       <path d="M 8.203125 72.90625 
L 55.078125 72.90625 
L 55.078125 68.703125 
L 28.609375 0 
L 18.3125 0 
L 43.21875 64.59375 
L 8.203125 64.59375 
z
" id="DejaVuSans-55"/>
      </defs>
      <g transform="translate(332.355114 266.598437)scale(0.1 -0.1)">
       <use xlink:href="#DejaVuSans-55"/>
      </g>
     </g>
    </g>
    <g id="xtick_9">
     <g id="line2d_9">
      <g>
       <use style="stroke:#000000;stroke-width:0.8;" x="373.581818" xlink:href="#m05a0e34483" y="252"/>
      </g>
     </g>
     <g id="text_9">
      <!-- 8 -->
      <defs>
       <path d="M 31.78125 34.625 
Q 24.75 34.625 20.71875 30.859375 
Q 16.703125 27.09375 16.703125 20.515625 
Q 16.703125 13.921875 20.71875 10.15625 
Q 24.75 6.390625 31.78125 6.390625 
Q 38.8125 6.390625 42.859375 10.171875 
Q 46.921875 13.96875 46.921875 20.515625 
Q 46.921875 27.09375 42.890625 30.859375 
Q 38.875 34.625 31.78125 34.625 
z
M 21.921875 38.8125 
Q 15.578125 40.375 12.03125 44.71875 
Q 8.5 49.078125 8.5 55.328125 
Q 8.5 64.0625 14.71875 69.140625 
Q 20.953125 74.21875 31.78125 74.21875 
Q 42.671875 74.21875 48.875 69.140625 
Q 55.078125 64.0625 55.078125 55.328125 
Q 55.078125 49.078125 51.53125 44.71875 
Q 48 40.375 41.703125 38.8125 
Q 48.828125 37.15625 52.796875 32.3125 
Q 56.78125 27.484375 56.78125 20.515625 
Q 56.78125 9.90625 50.3125 4.234375 
Q 43.84375 -1.421875 31.78125 -1.421875 
Q 19.734375 -1.421875 13.25 4.234375 
Q 6.78125 9.90625 6.78125 20.515625 
Q 6.78125 27.484375 10.78125 32.3125 
Q 14.796875 37.15625 21.921875 38.8125 
z
M 18.3125 54.390625 
Q 18.3125 48.734375 21.84375 45.5625 
Q 25.390625 42.390625 31.78125 42.390625 
Q 38.140625 42.390625 41.71875 45.5625 
Q 45.3125 48.734375 45.3125 54.390625 
Q 45.3125 60.0625 41.71875 63.234375 
Q 38.140625 66.40625 31.78125 66.40625 
Q 25.390625 66.40625 21.84375 63.234375 
Q 18.3125 60.0625 18.3125 54.390625 
z
" id="DejaVuSans-56"/>
      </defs>
      <g transform="translate(370.400568 266.598437)scale(0.1 -0.1)">
       <use xlink:href="#DejaVuSans-56"/>
      </g>
     </g>
    </g>
    <g id="text_10">
     <!-- N -->
     <defs>
      <path d="M 9.8125 72.90625 
L 23.09375 72.90625 
L 55.421875 11.921875 
L 55.421875 72.90625 
L 64.984375 72.90625 
L 64.984375 0 
L 51.703125 0 
L 19.390625 60.984375 
L 19.390625 0 
L 9.8125 0 
z
" id="DejaVuSans-78"/>
     </defs>
     <g transform="translate(217.659375 280.276563)scale(0.1 -0.1)">
      <use xlink:href="#DejaVuSans-78"/>
     </g>
    </g>
   </g>
   <g id="matplotlib.axis_2">
    <g id="ytick_1">
     <g id="line2d_10">
      <defs>
       <path d="M 0 0 
L -3.5 0 
" id="m9db5ef6e6e" style="stroke:#000000;stroke-width:0.8;"/>
      </defs>
      <g>
       <use style="stroke:#000000;stroke-width:0.8;" x="54" xlink:href="#m9db5ef6e6e" y="227.484008"/>
      </g>
     </g>
     <g id="text_11">
      <!-- −1.0 -->
      <defs>
       <path d="M 10.59375 35.5 
L 73.1875 35.5 
L 73.1875 27.203125 
L 10.59375 27.203125 
z
" id="DejaVuSans-8722"/>
       <path d="M 10.6875 12.40625 
L 21 12.40625 
L 21 0 
L 10.6875 0 
z
" id="DejaVuSans-46"/>
      </defs>
      <g transform="translate(22.717187 231.283227)scale(0.1 -0.1)">
       <use xlink:href="#DejaVuSans-8722"/>
       <use x="83.789062" xlink:href="#DejaVuSans-49"/>
       <use x="147.412109" xlink:href="#DejaVuSans-46"/>
       <use x="179.199219" xlink:href="#DejaVuSans-48"/>
      </g>
     </g>
    </g>
    <g id="ytick_2">
     <g id="line2d_11">
      <g>
       <use style="stroke:#000000;stroke-width:0.8;" x="54" xlink:href="#m9db5ef6e6e" y="180.861307"/>
      </g>
     </g>
     <g id="text_12">
      <!-- −0.5 -->
      <g transform="translate(22.717187 184.660525)scale(0.1 -0.1)">
       <use xlink:href="#DejaVuSans-8722"/>
       <use x="83.789062" xlink:href="#DejaVuSans-48"/>
       <use x="147.412109" xlink:href="#DejaVuSans-46"/>
       <use x="179.199219" xlink:href="#DejaVuSans-53"/>
      </g>
     </g>
    </g>
    <g id="ytick_3">
     <g id="line2d_12">
      <g>
       <use style="stroke:#000000;stroke-width:0.8;" x="54" xlink:href="#m9db5ef6e6e" y="134.238605"/>
      </g>
     </g>
     <g id="text_13">
      <!-- 0.0 -->
      <g transform="translate(31.096875 138.037824)scale(0.1 -0.1)">
       <use xlink:href="#DejaVuSans-48"/>
       <use x="63.623047" xlink:href="#DejaVuSans-46"/>
       <use x="95.410156" xlink:href="#DejaVuSans-48"/>
      </g>
     </g>
    </g>
    <g id="ytick_4">
     <g id="line2d_13">
      <g>
       <use style="stroke:#000000;stroke-width:0.8;" x="54" xlink:href="#m9db5ef6e6e" y="87.615904"/>
      </g>
     </g>
     <g id="text_14">
      <!-- 0.5 -->
      <g transform="translate(31.096875 91.415123)scale(0.1 -0.1)">
       <use xlink:href="#DejaVuSans-48"/>
       <use x="63.623047" xlink:href="#DejaVuSans-46"/>
       <use x="95.410156" xlink:href="#DejaVuSans-53"/>
      </g>
     </g>
    </g>
    <g id="ytick_5">
     <g id="line2d_14">
      <g>
       <use style="stroke:#000000;stroke-width:0.8;" x="54" xlink:href="#m9db5ef6e6e" y="40.993202"/>
      </g>
     </g>
     <g id="text_15">
      <!-- 1.0 -->
      <g transform="translate(31.096875 44.792421)scale(0.1 -0.1)">
       <use xlink:href="#DejaVuSans-49"/>
       <use x="63.623047" xlink:href="#DejaVuSans-46"/>
       <use x="95.410156" xlink:href="#DejaVuSans-48"/>
      </g>
     </g>
    </g>
    <g id="text_16">
     <!-- dN/dt -->
     <defs>
      <path d="M 45.40625 46.390625 
L 45.40625 75.984375 
L 54.390625 75.984375 
L 54.390625 0 
L 45.40625 0 
L 45.40625 8.203125 
Q 42.578125 3.328125 38.25 0.953125 
Q 33.9375 -1.421875 27.875 -1.421875 
Q 17.96875 -1.421875 11.734375 6.484375 
Q 5.515625 14.40625 5.515625 27.296875 
Q 5.515625 40.1875 11.734375 48.09375 
Q 17.96875 56 27.875 56 
Q 33.9375 56 38.25 53.625 
Q 42.578125 51.265625 45.40625 46.390625 
z
M 14.796875 27.296875 
Q 14.796875 17.390625 18.875 11.75 
Q 22.953125 6.109375 30.078125 6.109375 
Q 37.203125 6.109375 41.296875 11.75 
Q 45.40625 17.390625 45.40625 27.296875 
Q 45.40625 37.203125 41.296875 42.84375 
Q 37.203125 48.484375 30.078125 48.484375 
Q 22.953125 48.484375 18.875 42.84375 
Q 14.796875 37.203125 14.796875 27.296875 
z
" id="DejaVuSans-100"/>
      <path d="M 25.390625 72.90625 
L 33.6875 72.90625 
L 8.296875 -9.28125 
L 0 -9.28125 
z
" id="DejaVuSans-47"/>
      <path d="M 18.3125 70.21875 
L 18.3125 54.6875 
L 36.8125 54.6875 
L 36.8125 47.703125 
L 18.3125 47.703125 
L 18.3125 18.015625 
Q 18.3125 11.328125 20.140625 9.421875 
Q 21.96875 7.515625 27.59375 7.515625 
L 36.8125 7.515625 
L 36.8125 0 
L 27.59375 0 
Q 17.1875 0 13.234375 3.875 
Q 9.28125 7.765625 9.28125 18.015625 
L 9.28125 47.703125 
L 2.6875 47.703125 
L 2.6875 54.6875 
L 9.28125 54.6875 
L 9.28125 70.21875 
z
" id="DejaVuSans-116"/>
     </defs>
     <g transform="translate(16.6375 157.013594)rotate(-90)scale(0.1 -0.1)">
      <use xlink:href="#DejaVuSans-100"/>
      <use x="63.476562" xlink:href="#DejaVuSans-78"/>
      <use x="138.28125" xlink:href="#DejaVuSans-47"/>
      <use x="171.972656" xlink:href="#DejaVuSans-100"/>
      <use x="235.449219" xlink:href="#DejaVuSans-116"/>
     </g>
    </g>
   </g>
   <g id="line2d_15">
    <path clip-path="url(#p8dbb014274)" d="M 69.218182 134.238605 
L 71.120455 129.971698 
L 73.022727 126.484465 
L 74.925 123.744565 
L 76.827273 121.700685 
L 78.729545 120.286076 
L 80.631818 119.422852 
L 82.534091 119.026573 
L 84.436364 119.010666 
L 86.338636 119.290311 
L 88.240909 119.785568 
L 92.045455 121.140369 
L 97.752273 123.258959 
L 101.556818 124.295621 
L 103.459091 124.636389 
L 105.361364 124.844253 
L 107.263636 124.914065 
L 109.165909 124.844242 
L 111.068182 124.636016 
L 112.970455 124.292789 
L 114.872727 123.819578 
L 116.775 123.222571 
L 120.579545 121.685598 
L 124.384091 119.742383 
L 128.188636 117.455135 
L 131.993182 114.883781 
L 135.797727 112.083856 
L 141.504545 107.563745 
L 149.113636 101.159928 
L 170.038636 83.215739 
L 177.647727 77.066071 
L 183.354545 72.696639 
L 189.061364 68.571779 
L 194.768182 64.717923 
L 200.475 61.15687 
L 206.181818 57.906689 
L 211.888636 54.982431 
L 217.595455 52.396695 
L 223.302273 50.160082 
L 227.106818 48.867447 
L 230.911364 47.736297 
L 234.715909 46.76871 
L 238.520455 45.966555 
L 242.325 45.331517 
L 246.129545 44.86512 
L 249.934091 44.568743 
L 253.738636 44.443636 
L 257.543182 44.490936 
L 261.347727 44.711674 
L 265.152273 45.106793 
L 268.956818 45.677152 
L 272.761364 46.423535 
L 276.565909 47.346662 
L 280.370455 48.447192 
L 284.175 49.725729 
L 287.979545 51.182829 
L 291.784091 52.819003 
L 295.588636 54.634723 
L 299.393182 56.630423 
L 303.197727 58.806504 
L 307.002273 61.163339 
L 310.806818 63.701272 
L 314.611364 66.420619 
L 320.318182 70.840436 
L 326.025 75.67001 
L 331.731818 80.910157 
L 337.438636 86.561613 
L 343.145455 92.625038 
L 348.852273 99.101032 
L 354.559091 105.990134 
L 360.265909 113.292835 
L 365.972727 121.00958 
L 371.679545 129.140772 
L 373.581818 131.943334 
L 373.581818 131.943334 
" style="fill:none;stroke:#1f77b4;stroke-linecap:square;stroke-width:1.5;"/>
   </g>
   <g id="line2d_16">
    <path clip-path="url(#p8dbb014274)" d="M 69.218182 134.238605 
L 71.120455 130.018204 
L 73.022727 126.66911 
L 74.925 124.154936 
L 76.827273 122.417957 
L 78.729545 121.383081 
L 80.631818 120.962684 
L 82.534091 121.061773 
L 84.436364 121.582953 
L 86.338636 122.4308 
L 88.240909 123.515384 
L 92.045455 126.07689 
L 97.752273 129.972628 
L 101.556818 132.117949 
L 103.459091 132.982111 
L 105.361364 133.690926 
L 107.263636 134.238605 
L 109.165909 134.623367 
L 111.068182 134.846599 
L 112.970455 134.912125 
L 114.872727 134.825593 
L 116.775 134.593961 
L 118.677273 134.225086 
L 120.579545 133.727387 
L 124.384091 132.380478 
L 128.188636 130.623222 
L 131.993182 128.523035 
L 135.797727 126.142394 
L 139.602273 123.537799 
L 145.309091 119.319341 
L 152.918182 113.331198 
L 173.843182 96.570355 
L 181.452273 90.854392 
L 187.159091 86.809212 
L 192.865909 83.007187 
L 198.572727 79.474452 
L 204.279545 76.232634 
L 209.986364 73.299719 
L 215.693182 70.69074 
L 221.4 68.418321 
L 227.106818 66.493118 
L 230.911364 65.407065 
L 234.715909 64.481709 
L 238.520455 63.719153 
L 242.325 63.121292 
L 246.129545 62.689841 
L 249.934091 62.426351 
L 253.738636 62.332228 
L 257.543182 62.408751 
L 261.347727 62.657082 
L 265.152273 63.078279 
L 268.956818 63.67331 
L 272.761364 64.443058 
L 276.565909 65.388331 
L 280.370455 66.50987 
L 284.175 67.808356 
L 287.979545 69.284414 
L 291.784091 70.938619 
L 295.588636 72.771501 
L 299.393182 74.78355 
L 303.197727 76.975217 
L 307.002273 79.34692 
L 310.806818 81.899046 
L 316.513636 86.066305 
L 322.220455 90.641419 
L 327.927273 95.625376 
L 333.634091 101.019063 
L 339.340909 106.823278 
L 345.047727 113.038741 
L 350.754545 119.666101 
L 356.461364 126.705948 
L 362.168182 134.158815 
L 367.875 142.025187 
L 373.581818 150.305505 
L 373.581818 150.305505 
" style="fill:none;stroke:#ff7f0e;stroke-linecap:square;stroke-width:1.5;"/>
   </g>
   <g id="line2d_17">
    <path clip-path="url(#p8dbb014274)" d="M 69.218182 134.238605 
L 71.120455 130.064711 
L 73.022727 126.853754 
L 74.925 124.565307 
L 76.827273 123.13523 
L 78.729545 122.480086 
L 80.631818 122.502516 
L 82.534091 123.096974 
L 84.436364 124.15524 
L 86.338636 125.57129 
L 88.240909 127.2452 
L 92.045455 131.013411 
L 95.85 134.865039 
L 99.654545 138.386889 
L 101.556818 139.940277 
L 103.459091 141.327832 
L 105.361364 142.537599 
L 107.263636 143.563146 
L 109.165909 144.402493 
L 111.068182 145.057182 
L 112.970455 145.531462 
L 114.872727 145.831607 
L 116.775 145.965352 
L 118.677273 145.941423 
L 120.579545 145.769176 
L 122.481818 145.458295 
L 124.384091 145.018574 
L 128.188636 143.791309 
L 131.993182 142.162288 
L 135.797727 140.200931 
L 139.602273 137.970016 
L 143.406818 135.525414 
L 149.113636 131.563789 
L 156.722727 125.943026 
L 175.745455 111.650434 
L 183.354545 106.264984 
L 189.061364 102.455139 
L 194.768182 98.879149 
L 200.475 95.564261 
L 206.181818 92.533063 
L 211.888636 89.804366 
L 217.595455 87.393921 
L 223.302273 85.314979 
L 229.009091 83.578738 
L 232.813636 82.616391 
L 236.618182 81.813072 
L 240.422727 81.171001 
L 244.227273 80.69218 
L 248.031818 80.378421 
L 251.836364 80.231364 
L 255.640909 80.2525 
L 259.445455 80.44318 
L 263.25 80.80464 
L 267.054545 81.338001 
L 270.859091 82.044291 
L 274.663636 82.924448 
L 278.468182 83.979333 
L 282.272727 85.209734 
L 286.077273 86.616377 
L 289.881818 88.199926 
L 293.686364 89.960996 
L 297.490909 91.900152 
L 301.295455 94.017917 
L 305.1 96.314773 
L 308.904545 98.791167 
L 312.709091 101.447513 
L 318.415909 105.770272 
L 324.122727 110.499959 
L 329.829545 115.637635 
L 335.536364 121.184249 
L 341.243182 127.140658 
L 346.95 133.507636 
L 352.656818 140.285881 
L 358.363636 147.476025 
L 364.070455 155.078643 
L 369.777273 163.094256 
L 373.581818 168.667677 
L 373.581818 168.667677 
" style="fill:none;stroke:#2ca02c;stroke-linecap:square;stroke-width:1.5;"/>
   </g>
   <g id="line2d_18">
    <path clip-path="url(#p8dbb014274)" d="M 69.218182 134.238605 
L 71.120455 130.111217 
L 73.022727 127.038398 
L 74.925 124.975678 
L 76.827273 123.852502 
L 78.729545 123.57709 
L 80.631818 124.042349 
L 82.534091 125.132174 
L 84.436364 126.727527 
L 86.338636 128.71178 
L 88.240909 130.975016 
L 92.045455 135.949933 
L 95.85 140.997958 
L 99.654545 145.664579 
L 101.556818 147.762606 
L 103.459091 149.673553 
L 105.361364 151.384272 
L 107.263636 152.887686 
L 109.165909 154.181618 
L 111.068182 155.267764 
L 112.970455 156.150798 
L 114.872727 156.837622 
L 116.775 157.336742 
L 118.677273 157.65776 
L 120.579545 157.810965 
L 122.481818 157.807011 
L 124.384091 157.65667 
L 126.286364 157.370638 
L 128.188636 156.959396 
L 131.993182 155.801542 
L 135.797727 154.259469 
L 139.602273 152.402233 
L 143.406818 150.291292 
L 149.113636 146.76572 
L 154.820455 142.944313 
L 164.331818 136.248204 
L 177.647727 126.880428 
L 185.256818 121.809888 
L 190.963636 118.225615 
L 196.670455 114.867254 
L 202.377273 111.762944 
L 208.084091 108.936048 
L 213.790909 106.40606 
L 219.497727 104.189326 
L 225.204545 102.29962 
L 230.911364 100.748602 
L 234.715909 99.907708 
L 238.520455 99.224349 
L 242.325 98.700842 
L 246.129545 98.339282 
L 249.934091 98.141566 
L 253.738636 98.109412 
L 257.543182 98.244383 
L 261.347727 98.547898 
L 265.152273 99.021253 
L 268.956818 99.665628 
L 272.761364 100.482103 
L 276.565909 101.471667 
L 280.370455 102.635225 
L 284.175 103.973609 
L 287.979545 105.487583 
L 291.784091 107.17785 
L 295.588636 109.045058 
L 299.393182 111.089805 
L 303.197727 113.312643 
L 307.002273 115.714082 
L 310.806818 118.294596 
L 316.513636 122.502081 
L 322.220455 127.11481 
L 327.927273 132.133991 
L 333.634091 137.560707 
L 339.340909 143.395935 
L 345.047727 149.640553 
L 350.754545 156.295357 
L 356.461364 163.361065 
L 362.168182 170.838331 
L 367.875 178.727745 
L 373.581818 187.029849 
L 373.581818 187.029849 
" style="fill:none;stroke:#d62728;stroke-linecap:square;stroke-width:1.5;"/>
   </g>
   <g id="line2d_19">
    <path clip-path="url(#p8dbb014274)" d="M 69.218182 134.238605 
L 71.120455 130.157724 
L 73.022727 127.223043 
L 74.925 125.386049 
L 76.827273 124.569774 
L 78.729545 124.674095 
L 80.631818 125.582181 
L 82.534091 127.167374 
L 84.436364 129.299814 
L 86.338636 131.852269 
L 90.143182 137.748328 
L 97.752273 150.113635 
L 101.556818 155.584934 
L 103.459091 158.019274 
L 105.361364 160.230945 
L 107.263636 162.212226 
L 109.165909 163.960744 
L 111.068182 165.478347 
L 112.970455 166.770135 
L 114.872727 167.843637 
L 116.775 168.708133 
L 118.677273 169.374097 
L 120.579545 169.852754 
L 122.481818 170.155726 
L 124.384091 170.294765 
L 126.286364 170.28154 
L 128.188636 170.127483 
L 130.090909 169.843681 
L 133.895455 168.929011 
L 137.7 167.616941 
L 141.504545 165.978653 
L 145.309091 164.077134 
L 149.113636 161.967651 
L 154.820455 158.517257 
L 162.429545 153.588449 
L 181.452273 141.035363 
L 189.061364 136.3385 
L 194.768182 133.040374 
L 200.475 129.971652 
L 206.181818 127.159436 
L 211.888636 124.6263 
L 217.595455 122.391147 
L 223.302273 120.469875 
L 229.009091 118.875925 
L 232.813636 118.000844 
L 236.618182 117.2793 
L 240.422727 116.713955 
L 244.227273 116.307211 
L 248.031818 116.061244 
L 251.836364 115.978021 
L 255.640909 116.059331 
L 259.445455 116.306797 
L 263.25 116.721899 
L 267.054545 117.305985 
L 270.859091 118.060287 
L 274.663636 118.985933 
L 278.468182 120.083953 
L 282.272727 121.355295 
L 286.077273 122.800827 
L 289.881818 124.42135 
L 293.686364 126.2176 
L 297.490909 128.190255 
L 301.295455 130.339942 
L 305.1 132.667241 
L 308.904545 135.172686 
L 314.611364 139.265957 
L 320.318182 143.762694 
L 326.025 148.664264 
L 331.731818 153.971891 
L 337.438636 159.68668 
L 343.145455 165.809621 
L 348.852273 172.341612 
L 354.559091 179.283464 
L 360.265909 186.635912 
L 365.972727 194.399622 
L 371.679545 202.575203 
L 373.581818 205.39202 
L 373.581818 205.39202 
" style="fill:none;stroke:#9467bd;stroke-linecap:square;stroke-width:1.5;"/>
   </g>
   <g id="line2d_20">
    <path clip-path="url(#p8dbb014274)" d="M 69.218182 134.238605 
L 71.120455 130.20423 
L 73.022727 127.407687 
L 74.925 125.79642 
L 76.827273 125.287047 
L 78.729545 125.7711 
L 80.631818 127.122013 
L 82.534091 129.202575 
L 84.436364 131.872101 
L 86.338636 134.992759 
L 90.143182 142.079497 
L 97.752273 156.827304 
L 101.556818 163.407263 
L 103.459091 166.364995 
L 105.361364 169.077618 
L 107.263636 171.536766 
L 109.165909 173.739869 
L 111.068182 175.688929 
L 112.970455 177.389471 
L 114.872727 178.849652 
L 116.775 180.079524 
L 118.677273 181.090434 
L 120.579545 181.894543 
L 122.481818 182.504442 
L 124.384091 182.932861 
L 126.286364 183.192442 
L 128.188636 183.29557 
L 130.090909 183.254256 
L 131.993182 183.080049 
L 135.797727 182.376544 
L 139.602273 181.266666 
L 143.406818 179.823048 
L 147.211364 178.10966 
L 151.015909 176.182463 
L 156.722727 172.995634 
L 164.331818 168.401792 
L 185.256818 155.487747 
L 192.865909 151.151935 
L 198.572727 148.131576 
L 204.279545 145.344941 
L 209.986364 142.818007 
L 215.693182 140.57249 
L 221.4 138.626624 
L 227.106818 136.995802 
L 232.813636 135.693071 
L 236.618182 135.012414 
L 240.422727 134.485431 
L 244.227273 134.114727 
L 248.031818 133.902655 
L 251.836364 133.85135 
L 255.640909 133.962746 
L 259.445455 134.238605 
L 263.25 134.680528 
L 267.054545 135.289977 
L 270.859091 136.068286 
L 274.663636 137.016675 
L 278.468182 138.136263 
L 282.272727 139.428075 
L 286.077273 140.893053 
L 289.881818 142.532062 
L 293.686364 144.345902 
L 297.490909 146.335306 
L 301.295455 148.500954 
L 305.1 150.843474 
L 308.904545 153.363446 
L 314.611364 157.477291 
L 320.318182 161.993258 
L 326.025 166.912827 
L 331.731818 172.237325 
L 337.438636 177.967946 
L 343.145455 184.105767 
L 348.852273 190.651757 
L 354.559091 197.606797 
L 360.265909 204.971681 
L 365.972727 212.747133 
L 371.679545 220.933811 
L 373.581818 223.754192 
L 373.581818 223.754192 
" style="fill:none;stroke:#8c564b;stroke-linecap:square;stroke-width:1.5;"/>
   </g>
   <g id="line2d_21">
    <path clip-path="url(#p8dbb014274)" d="M 69.218182 134.238605 
L 71.120455 130.250737 
L 73.022727 127.592331 
L 74.925 126.20679 
L 76.827273 126.004319 
L 78.729545 126.868105 
L 80.631818 128.661846 
L 82.534091 131.237775 
L 84.436364 134.444388 
L 86.338636 138.133249 
L 90.143182 146.410665 
L 97.752273 163.540973 
L 101.556818 171.229591 
L 103.459091 174.710716 
L 105.361364 177.924291 
L 107.263636 180.861307 
L 109.165909 183.518995 
L 111.068182 185.899512 
L 112.970455 188.008808 
L 114.872727 189.855667 
L 116.775 191.450914 
L 118.677273 192.806771 
L 120.579545 193.936332 
L 122.481818 194.853157 
L 124.384091 195.570957 
L 126.286364 196.103344 
L 128.188636 196.463657 
L 130.090909 196.664831 
L 131.993182 196.719303 
L 133.895455 196.638956 
L 135.797727 196.435082 
L 139.602273 195.698883 
L 143.406818 194.588925 
L 147.211364 193.174102 
L 151.015909 191.514677 
L 156.722727 188.679837 
L 162.429545 185.560204 
L 171.940909 180.044819 
L 185.256818 172.326677 
L 192.865909 168.188122 
L 198.572727 165.295858 
L 204.279545 162.623017 
L 209.986364 160.19758 
L 215.693182 158.042927 
L 221.4 156.1787 
L 227.106818 154.621473 
L 232.813636 153.385298 
L 238.520455 152.482142 
L 242.325 152.070167 
L 246.129545 151.813444 
L 249.934091 151.714389 
L 253.738636 151.775188 
L 257.543182 151.99783 
L 261.347727 152.384122 
L 265.152273 152.935712 
L 268.956818 153.654104 
L 272.761364 154.540671 
L 276.565909 155.596671 
L 280.370455 156.823258 
L 284.175 158.221489 
L 287.979545 159.792337 
L 291.784091 161.536697 
L 295.588636 163.455393 
L 299.393182 165.549187 
L 303.197727 167.818781 
L 307.002273 170.264825 
L 312.709091 174.266039 
L 318.415909 178.667458 
L 324.122727 183.470735 
L 329.829545 188.677354 
L 335.536364 194.288645 
L 341.243182 200.305808 
L 346.95 206.729924 
L 352.656818 213.561973 
L 358.363636 220.802839 
L 364.070455 228.453326 
L 369.777273 236.514166 
L 373.581818 242.116364 
L 373.581818 242.116364 
" style="fill:none;stroke:#e377c2;stroke-linecap:square;stroke-width:1.5;"/>
   </g>
   <g id="line2d_22">
    <path clip-path="url(#p8dbb014274)" d="M 54 134.238605 
L 388.8 134.238605 
" style="fill:none;stroke:#000000;stroke-linecap:square;"/>
   </g>
   <g id="patch_3">
    <path d="M 54 252 
L 54 34.56 
" style="fill:none;stroke:#000000;stroke-linecap:square;stroke-linejoin:miter;stroke-width:0.8;"/>
   </g>
   <g id="patch_4">
    <path d="M 388.8 252 
L 388.8 34.56 
" style="fill:none;stroke:#000000;stroke-linecap:square;stroke-linejoin:miter;stroke-width:0.8;"/>
   </g>
   <g id="patch_5">
    <path d="M 54 252 
L 388.8 252 
" style="fill:none;stroke:#000000;stroke-linecap:square;stroke-linejoin:miter;stroke-width:0.8;"/>
   </g>
   <g id="patch_6">
    <path d="M 54 34.56 
L 388.8 34.56 
" style="fill:none;stroke:#000000;stroke-linecap:square;stroke-linejoin:miter;stroke-width:0.8;"/>
   </g>
   <g id="legend_1">
    <g id="patch_7">
     <path d="M 335.896875 147.306875 
L 383.8 147.306875 
Q 385.8 147.306875 385.8 145.306875 
L 385.8 43.56 
Q 385.8 41.56 383.8 41.56 
L 335.896875 41.56 
Q 333.896875 41.56 333.896875 43.56 
L 333.896875 145.306875 
Q 333.896875 147.306875 335.896875 147.306875 
z
" style="fill:#4c4c4c;opacity:0.5;stroke:#4c4c4c;stroke-linejoin:miter;"/>
    </g>
    <g id="patch_8">
     <path d="M 333.896875 145.306875 
L 381.8 145.306875 
Q 383.8 145.306875 383.8 143.306875 
L 383.8 41.56 
Q 383.8 39.56 381.8 39.56 
L 333.896875 39.56 
Q 331.896875 39.56 331.896875 41.56 
L 331.896875 143.306875 
Q 331.896875 145.306875 333.896875 145.306875 
z
" style="fill:#ffffff;stroke:#cccccc;stroke-linejoin:miter;"/>
    </g>
    <g id="line2d_23">
     <path d="M 335.896875 47.658437 
L 355.896875 47.658437 
" style="fill:none;stroke:#1f77b4;stroke-linecap:square;stroke-width:1.5;"/>
    </g>
    <g id="line2d_24"/>
    <g id="text_17">
     <!-- 1.6 -->
     <g transform="translate(363.896875 51.158437)scale(0.1 -0.1)">
      <use xlink:href="#DejaVuSans-49"/>
      <use x="63.623047" xlink:href="#DejaVuSans-46"/>
      <use x="95.410156" xlink:href="#DejaVuSans-54"/>
     </g>
    </g>
    <g id="line2d_25">
     <path d="M 335.896875 62.336563 
L 355.896875 62.336563 
" style="fill:none;stroke:#ff7f0e;stroke-linecap:square;stroke-width:1.5;"/>
    </g>
    <g id="line2d_26"/>
    <g id="text_18">
     <!-- 1.8 -->
     <g transform="translate(363.896875 65.836563)scale(0.1 -0.1)">
      <use xlink:href="#DejaVuSans-49"/>
      <use x="63.623047" xlink:href="#DejaVuSans-46"/>
      <use x="95.410156" xlink:href="#DejaVuSans-56"/>
     </g>
    </g>
    <g id="line2d_27">
     <path d="M 335.896875 77.014687 
L 355.896875 77.014687 
" style="fill:none;stroke:#2ca02c;stroke-linecap:square;stroke-width:1.5;"/>
    </g>
    <g id="line2d_28"/>
    <g id="text_19">
     <!-- 2.0 -->
     <g transform="translate(363.896875 80.514687)scale(0.1 -0.1)">
      <use xlink:href="#DejaVuSans-50"/>
      <use x="63.623047" xlink:href="#DejaVuSans-46"/>
      <use x="95.410156" xlink:href="#DejaVuSans-48"/>
     </g>
    </g>
    <g id="line2d_29">
     <path d="M 335.896875 91.692813 
L 355.896875 91.692813 
" style="fill:none;stroke:#d62728;stroke-linecap:square;stroke-width:1.5;"/>
    </g>
    <g id="line2d_30"/>
    <g id="text_20">
     <!-- 2.2 -->
     <g transform="translate(363.896875 95.192813)scale(0.1 -0.1)">
      <use xlink:href="#DejaVuSans-50"/>
      <use x="63.623047" xlink:href="#DejaVuSans-46"/>
      <use x="95.410156" xlink:href="#DejaVuSans-50"/>
     </g>
    </g>
    <g id="line2d_31">
     <path d="M 335.896875 106.370937 
L 355.896875 106.370937 
" style="fill:none;stroke:#9467bd;stroke-linecap:square;stroke-width:1.5;"/>
    </g>
    <g id="line2d_32"/>
    <g id="text_21">
     <!-- 2.4 -->
     <g transform="translate(363.896875 109.870937)scale(0.1 -0.1)">
      <use xlink:href="#DejaVuSans-50"/>
      <use x="63.623047" xlink:href="#DejaVuSans-46"/>
      <use x="95.410156" xlink:href="#DejaVuSans-52"/>
     </g>
    </g>
    <g id="line2d_33">
     <path d="M 335.896875 121.049062 
L 355.896875 121.049062 
" style="fill:none;stroke:#8c564b;stroke-linecap:square;stroke-width:1.5;"/>
    </g>
    <g id="line2d_34"/>
    <g id="text_22">
     <!-- 2.6 -->
     <g transform="translate(363.896875 124.549062)scale(0.1 -0.1)">
      <use xlink:href="#DejaVuSans-50"/>
      <use x="63.623047" xlink:href="#DejaVuSans-46"/>
      <use x="95.410156" xlink:href="#DejaVuSans-54"/>
     </g>
    </g>
    <g id="line2d_35">
     <path d="M 335.896875 135.727187 
L 355.896875 135.727187 
" style="fill:none;stroke:#e377c2;stroke-linecap:square;stroke-width:1.5;"/>
    </g>
    <g id="line2d_36"/>
    <g id="text_23">
     <!-- 2.8 -->
     <g transform="translate(363.896875 139.227187)scale(0.1 -0.1)">
      <use xlink:href="#DejaVuSans-50"/>
      <use x="63.623047" xlink:href="#DejaVuSans-46"/>
      <use x="95.410156" xlink:href="#DejaVuSans-56"/>
     </g>
    </g>
   </g>
  </g>
 </g>
 <defs>
  <clipPath id="p8dbb014274">
   <rect height="217.44" width="334.8" x="54" y="34.56"/>
  </clipPath>
 </defs>
</svg>
